<svg width="90" height="90" viewBox="0 0 90 90" fill="none" xmlns="http://www.w3.org/2000/svg">
<path d="M59.0625 19.6875C59.0625 11.8125 52.875 5.625 45 5.625C37.125 5.625 30.9375 11.8125 30.9375 19.6875C30.9375 24.1875 33.1875 28.4062 36.5625 30.9375V59.0625C36.5625 59.9062 36.8438 60.4688 37.4063 61.0313C39.375 63 42.1875 64.125 45 64.125C47.8125 64.125 50.625 63 52.5938 61.0313C53.1563 60.4688 53.4375 59.9062 53.4375 59.0625V30.9375C56.8125 28.4062 59.0625 24.1875 59.0625 19.6875Z" fill="url(#paint0_linear_1006_2520)"/>
<path d="M83.8125 65.8125L74.25 54C72.5625 51.75 70.3125 50.625 67.5 50.625H59.0625V59.0625C59.0625 61.3125 58.2188 63.5625 56.5312 64.9688C53.4375 68.0625 49.2188 69.75 45 69.75C40.7812 69.75 36.5625 68.0625 33.4687 64.9688C31.7812 63.5625 30.9375 61.3125 30.9375 59.0625V50.625H22.5C19.9688 50.625 17.4375 51.75 16.0312 53.7188L6.46875 65.5312C5.90625 66.375 5.625 66.9375 5.625 67.5V75.9375C5.625 80.7188 9.28125 84.375 14.0625 84.375H75.9375C80.7188 84.375 84.375 80.7188 84.375 75.9375V67.5C84.375 66.9375 84.0938 66.375 83.8125 65.8125Z" fill="url(#paint1_linear_1006_2520)"/>
<defs>
<linearGradient id="paint0_linear_1006_2520" x1="45" y1="5.625" x2="45" y2="64.125" gradientUnits="userSpaceOnUse">
<stop stop-color="#0B7D57"/>
<stop offset="1" stop-color="#004830"/>
</linearGradient>
<linearGradient id="paint1_linear_1006_2520" x1="45" y1="50.625" x2="45" y2="84.375" gradientUnits="userSpaceOnUse">
<stop stop-color="#0B7D57"/>
<stop offset="1" stop-color="#004830"/>
</linearGradient>
</defs>
</svg>
