<svg width="90" height="90" viewBox="0 0 90 90" fill="none" xmlns="http://www.w3.org/2000/svg">
<g clip-path="url(#clip0_1006_2527)">
<rect width="90" height="90" fill="url(#paint0_linear_1006_2527)"/>
<path d="M34.0401 75.9351H4.26568C1.90986 75.9351 0 77.8919 0 80.3056V86.7092C0 89.1229 1.90986 91.0797 4.26568 91.0797H45.6183C40.5354 87.4519 36.412 82.2732 34.0401 75.9351Z" fill="url(#paint1_linear_1006_2527)"/>
<path d="M34.6832 50.9834H12.0059C9.65009 50.9834 7.74023 52.9402 7.74023 55.3539V61.7575C7.74023 64.1712 9.65009 66.1281 12.0059 66.1281H31.991C31.7222 61.2257 32.4897 56.2784 34.4456 51.5399C34.5227 51.3531 34.6029 51.1684 34.6832 50.9834Z" fill="url(#paint2_linear_1006_2527)"/>
<path d="M48.2369 26.0314H5.94927C3.59345 26.0314 1.68359 27.9882 1.68359 30.4019V36.8055C1.68359 39.2192 3.59345 41.176 5.94927 41.176H41.2605C41.2661 41.1703 41.2717 41.1641 41.2774 41.1582C44.3818 37.9774 48.1307 35.4163 52.5027 33.7131V30.4019C52.5026 27.9882 50.5929 26.0314 48.2369 26.0314Z" fill="url(#paint3_linear_1006_2527)"/>
<path d="M51.5886 1.07983H9.30083C6.94502 1.07983 5.03516 3.03665 5.03516 5.45039V11.8539C5.03516 14.2675 6.94502 16.2245 9.30083 16.2245H51.5886C53.9444 16.2245 55.8543 14.2677 55.8543 11.8539V5.45039C55.8543 3.03665 53.9446 1.07983 51.5886 1.07983Z" fill="url(#paint4_linear_1006_2527)"/>
<path d="M59.9473 57.0841C59.9473 58.2607 60.9768 58.991 62.4817 59.6403V54.8119C60.6996 55.1771 59.9473 56.1104 59.9473 57.0841Z" fill="url(#paint5_linear_1006_2527)"/>
<path d="M64.6992 67.1464V72.5833C66.0459 72.2589 67.115 71.4879 67.115 70.0271C67.115 68.6884 66.1248 67.8362 64.6992 67.1464Z" fill="url(#paint6_linear_1006_2527)"/>
<path d="M63.8199 37.4341C49.3613 37.4341 37.6406 49.4431 37.6406 64.257C37.6406 79.0708 49.3613 91.0798 63.8199 91.0798C78.2784 91.0798 89.9991 79.0709 89.9991 64.257C89.9989 49.443 78.278 37.4341 63.8199 37.4341ZM65.0937 78.2232V79.4C65.0937 79.968 64.3412 80.4954 63.5889 80.4954C62.7179 80.4954 62.0842 79.9678 62.0842 79.4V78.3856C57.3321 78.2232 53.4511 75.7079 53.4511 73.111C53.4511 71.7312 54.6392 69.7025 56.144 69.7025C57.8073 69.7025 59.1537 72.0965 62.0842 72.624V66.051C58.441 64.631 54.1639 62.8862 54.1639 57.6926C54.1639 52.5397 57.8864 50.0647 62.0842 49.4561V48.3202C62.0842 47.752 62.7179 47.2246 63.5889 47.2246C64.3414 47.2246 65.0937 47.7522 65.0937 48.3202V49.3344C67.5492 49.4156 72.1823 50.0649 72.1823 52.8644C72.1823 53.9599 71.4695 56.1916 69.727 56.1916C68.4202 56.1916 67.6679 54.8932 65.0936 54.6904V60.6142C68.6972 61.994 72.8951 63.9009 72.8951 69.3784C72.8952 74.4095 69.7273 77.4524 65.0937 78.2232Z" fill="url(#paint7_linear_1006_2527)"/>
</g>
<defs>
<linearGradient id="paint0_linear_1006_2527" x1="45" y1="0" x2="45" y2="90" gradientUnits="userSpaceOnUse">
<stop stop-color="white"/>
</linearGradient>
<linearGradient id="paint1_linear_1006_2527" x1="22.8092" y1="75.9351" x2="22.8092" y2="91.0797" gradientUnits="userSpaceOnUse">
<stop stop-color="#0B7D57"/>
<stop offset="1" stop-color="#004830"/>
</linearGradient>
<linearGradient id="paint2_linear_1006_2527" x1="21.2117" y1="50.9834" x2="21.2117" y2="66.1281" gradientUnits="userSpaceOnUse">
<stop stop-color="#0B7D57"/>
<stop offset="1" stop-color="#004830"/>
</linearGradient>
<linearGradient id="paint3_linear_1006_2527" x1="27.0932" y1="26.0314" x2="27.0932" y2="41.176" gradientUnits="userSpaceOnUse">
<stop stop-color="#0B7D57"/>
<stop offset="1" stop-color="#004830"/>
</linearGradient>
<linearGradient id="paint4_linear_1006_2527" x1="30.4447" y1="1.07983" x2="30.4447" y2="16.2245" gradientUnits="userSpaceOnUse">
<stop stop-color="#0B7D57"/>
<stop offset="1" stop-color="#004830"/>
</linearGradient>
<linearGradient id="paint5_linear_1006_2527" x1="61.2145" y1="54.8119" x2="61.2145" y2="59.6403" gradientUnits="userSpaceOnUse">
<stop stop-color="#0B7D57"/>
<stop offset="1" stop-color="#004830"/>
</linearGradient>
<linearGradient id="paint6_linear_1006_2527" x1="65.9071" y1="67.1464" x2="65.9071" y2="72.5833" gradientUnits="userSpaceOnUse">
<stop stop-color="#0B7D57"/>
<stop offset="1" stop-color="#004830"/>
</linearGradient>
<linearGradient id="paint7_linear_1006_2527" x1="63.8198" y1="37.4341" x2="63.8198" y2="91.0798" gradientUnits="userSpaceOnUse">
<stop stop-color="#0B7D57"/>
<stop offset="1" stop-color="#004830"/>
</linearGradient>
<clipPath id="clip0_1006_2527">
<rect width="90" height="90" fill="white"/>
</clipPath>
</defs>
</svg>
