<svg width="90" height="90" viewBox="0 0 90 90" fill="none" xmlns="http://www.w3.org/2000/svg">
<path d="M87.3062 10.6527C80.1449 13.7674 70.5747 14.2249 61.6352 10.5741C57.288 8.79873 48.1264 4.43373 44.9998 0C41.8738 4.43373 32.712 8.79873 28.3648 10.5739C19.425 14.2249 9.8553 13.7672 2.69341 10.6527C1.40826 10.0934 0 11.0183 0 12.4026C0 86.7437 44.9998 90 44.9998 90C44.9998 90 90 86.7437 90 12.4026C90 11.0183 88.5918 10.0934 87.3062 10.6527ZM15.2318 22.0307C20.947 22.0307 26.5266 20.9355 31.8152 18.7755C34.6929 17.6003 40.1508 15.1703 44.9996 11.8747C49.8487 15.1703 55.3069 17.6003 58.1844 18.7755C63.474 20.9357 69.0533 22.031 74.7682 22.0307C76.7765 22.0307 78.7737 21.8899 80.7324 21.6146C77.7791 73.1714 50.1411 80.1882 44.9998 81.0475C39.8589 80.1881 12.2208 73.1712 9.26741 21.6144C11.2261 21.8902 13.2235 22.0307 15.2318 22.0307Z" fill="url(#paint0_linear_1001_1386)"/>
<path d="M44.9998 71.9436C50.3417 70.4167 66.3537 63.1758 70.8127 30.7633C65.2898 30.3541 59.8967 29.0858 54.7342 26.9772C52.53 26.077 48.884 24.4791 44.9998 22.3186C41.116 24.4791 37.4704 26.077 35.266 26.9772C30.104 29.0855 24.7115 30.3537 19.1875 30.7633C23.6464 63.1758 39.6582 70.4169 44.9998 71.9436Z" fill="url(#paint1_linear_1001_1386)"/>
<defs>
<linearGradient id="paint0_linear_1001_1386" x1="45" y1="0" x2="45" y2="90" gradientUnits="userSpaceOnUse">
<stop stop-color="#4068F4"/>
<stop offset="1" stop-color="#1234AF"/>
</linearGradient>
<linearGradient id="paint1_linear_1001_1386" x1="45.0001" y1="22.3186" x2="45.0001" y2="71.9436" gradientUnits="userSpaceOnUse">
<stop stop-color="#4068F4"/>
<stop offset="1" stop-color="#1234AF"/>
</linearGradient>
</defs>
</svg>
