<svg viewBox="0 0 90 89" fill="none" xmlns="http://www.w3.org/2000/svg">
<path d="M34.0401 74.9351H4.26568C1.90986 74.9351 0 76.8919 0 79.3056V85.7092C0 88.1229 1.90986 90.0797 4.26568 90.0797H45.6183C40.5354 86.4519 36.412 81.2732 34.0401 74.9351Z" fill="url(#paint0_linear_924_73)"/>
<path d="M34.6836 49.9835H12.0063C9.65046 49.9835 7.7406 51.9403 7.7406 54.354V60.7576C7.7406 63.1713 9.65046 65.1281 12.0063 65.1281H31.9913C31.7226 60.2257 32.49 55.2785 34.4459 50.54C34.5231 50.3532 34.6033 50.1684 34.6836 49.9835Z" fill="url(#paint1_linear_924_73)"/>
<path d="M48.236 25.0314H5.94841C3.5926 25.0314 1.68274 26.9882 1.68274 29.402V35.8055C1.68274 38.2193 3.5926 40.1761 5.94841 40.1761H41.2596C41.2653 40.1703 41.2709 40.1642 41.2765 40.1583C44.381 36.9775 48.1299 34.4164 52.5019 32.7132V29.402C52.5017 26.9882 50.592 25.0314 48.236 25.0314Z" fill="url(#paint2_linear_924_73)"/>
<path d="M51.5889 0.079834H9.30107C6.94526 0.079834 5.0354 2.03665 5.0354 4.45039V10.8539C5.0354 13.2675 6.94526 15.2245 9.30107 15.2245H51.5889C53.9447 15.2245 55.8545 13.2677 55.8545 10.8539V4.45039C55.8545 2.03665 53.9449 0.079834 51.5889 0.079834Z" fill="url(#paint3_linear_924_73)"/>
<path d="M59.9469 56.0841C59.9469 57.2607 60.9764 57.991 62.4813 58.6403V53.8119C60.6992 54.1771 59.9469 55.1104 59.9469 56.0841Z" fill="url(#paint4_linear_924_73)"/>
<path d="M64.6989 66.1464V71.5833C66.0455 71.2589 67.1146 70.4879 67.1146 69.0271C67.1146 67.6884 66.1244 66.8362 64.6989 66.1464Z" fill="url(#paint5_linear_924_73)"/>
<path d="M63.8208 36.4341C49.3623 36.4341 37.6416 48.4431 37.6416 63.257C37.6416 78.0708 49.3623 90.0798 63.8208 90.0798C78.2793 90.0798 90 78.0709 90 63.257C89.9999 48.443 78.279 36.4341 63.8208 36.4341ZM65.0947 77.2232V78.4C65.0947 78.968 64.3422 79.4954 63.5899 79.4954C62.7189 79.4954 62.0852 78.9678 62.0852 78.4V77.3856C57.3331 77.2232 53.452 74.7079 53.452 72.111C53.452 70.7312 54.6401 68.7025 56.145 68.7025C57.8082 68.7025 59.1547 71.0965 62.0852 71.624V65.051C58.4419 63.631 54.1648 61.8862 54.1648 56.6926C54.1648 51.5397 57.8873 49.0647 62.0852 48.4561V47.3202C62.0852 46.752 62.7189 46.2246 63.5899 46.2246C64.3424 46.2246 65.0947 46.7522 65.0947 47.3202V48.3344C67.5502 48.4156 72.1833 49.0649 72.1833 51.8644C72.1833 52.9599 71.4705 55.1916 69.7279 55.1916C68.4212 55.1916 67.6688 53.8932 65.0945 53.6904V59.6142C68.6982 60.994 72.896 62.9009 72.896 68.3784C72.8962 73.4095 69.7283 76.4524 65.0947 77.2232Z" fill="url(#paint6_linear_924_73)"/>
<defs>
<linearGradient id="paint0_linear_924_73" x1="22.8092" y1="74.9351" x2="22.8092" y2="90.0797" gradientUnits="userSpaceOnUse">
<stop stop-color="#5DC3FB"/>
<stop offset="1" stop-color="#328FC2"/>
</linearGradient>
<linearGradient id="paint1_linear_924_73" x1="21.2121" y1="49.9835" x2="21.2121" y2="65.1281" gradientUnits="userSpaceOnUse">
<stop stop-color="#5DC3FB"/>
<stop offset="1" stop-color="#328FC2"/>
</linearGradient>
<linearGradient id="paint2_linear_924_73" x1="27.0923" y1="25.0314" x2="27.0923" y2="40.1761" gradientUnits="userSpaceOnUse">
<stop stop-color="#5DC3FB"/>
<stop offset="1" stop-color="#328FC2"/>
</linearGradient>
<linearGradient id="paint3_linear_924_73" x1="30.445" y1="0.079834" x2="30.445" y2="15.2245" gradientUnits="userSpaceOnUse">
<stop stop-color="#5DC3FB"/>
<stop offset="1" stop-color="#328FC2"/>
</linearGradient>
<linearGradient id="paint4_linear_924_73" x1="61.2141" y1="53.8119" x2="61.2141" y2="58.6403" gradientUnits="userSpaceOnUse">
<stop stop-color="#5DC3FB"/>
<stop offset="1" stop-color="#328FC2"/>
</linearGradient>
<linearGradient id="paint5_linear_924_73" x1="65.9067" y1="66.1464" x2="65.9067" y2="71.5833" gradientUnits="userSpaceOnUse">
<stop stop-color="#5DC3FB"/>
<stop offset="1" stop-color="#328FC2"/>
</linearGradient>
<linearGradient id="paint6_linear_924_73" x1="63.8208" y1="36.4341" x2="63.8208" y2="90.0798" gradientUnits="userSpaceOnUse">
<stop stop-color="#5DC3FB"/>
<stop offset="1" stop-color="#328FC2"/>
</linearGradient>
</defs>
</svg>
