<svg width="90" height="90" viewBox="0 0 90 90" fill="none" xmlns="http://www.w3.org/2000/svg">
<g clip-path="url(#clip0_928_194)">
<rect width="90" height="90" fill="url(#paint0_linear_928_194)"/>
<path d="M34.0401 75.9351H4.26568C1.90986 75.9351 0 77.8919 0 80.3056V86.7092C0 89.1229 1.90986 91.0797 4.26568 91.0797H45.6183C40.5354 87.4519 36.412 82.2732 34.0401 75.9351Z" fill="url(#paint1_linear_928_194)"/>
<path d="M34.6837 50.9834H12.0064C9.65058 50.9834 7.74072 52.9402 7.74072 55.3539V61.7575C7.74072 64.1712 9.65058 66.1281 12.0064 66.1281H31.9915C31.7227 61.2257 32.4901 56.2784 34.4461 51.5399C34.5232 51.3531 34.6034 51.1684 34.6837 50.9834Z" fill="url(#paint2_linear_928_194)"/>
<path d="M48.2359 26.0314H5.94829C3.59248 26.0314 1.68262 27.9882 1.68262 30.4019V36.8055C1.68262 39.2192 3.59248 41.176 5.94829 41.176H41.2595C41.2651 41.1703 41.2708 41.1641 41.2764 41.1582C44.3808 37.9774 48.1297 35.4163 52.5018 33.7131V30.4019C52.5016 27.9882 50.5919 26.0314 48.2359 26.0314Z" fill="url(#paint3_linear_928_194)"/>
<path d="M51.5891 1.07983H9.30132C6.9455 1.07983 5.03564 3.03665 5.03564 5.45039V11.8539C5.03564 14.2675 6.9455 16.2245 9.30132 16.2245H51.5891C53.9449 16.2245 55.8548 14.2677 55.8548 11.8539V5.45039C55.8548 3.03665 53.9451 1.07983 51.5891 1.07983Z" fill="url(#paint4_linear_928_194)"/>
<path d="M59.9468 57.0841C59.9468 58.2607 60.9763 58.991 62.4812 59.6403V54.8119C60.6991 55.1771 59.9468 56.1104 59.9468 57.0841Z" fill="url(#paint5_linear_928_194)"/>
<path d="M64.6987 67.1464V72.5833C66.0454 72.2589 67.1145 71.4879 67.1145 70.0271C67.1145 68.6884 66.1243 67.8362 64.6987 67.1464Z" fill="url(#paint6_linear_928_194)"/>
<path d="M63.8208 37.4341C49.3623 37.4341 37.6416 49.4431 37.6416 64.257C37.6416 79.0708 49.3623 91.0798 63.8208 91.0798C78.2793 91.0798 90 79.0709 90 64.257C89.9999 49.443 78.279 37.4341 63.8208 37.4341ZM65.0947 78.2232V79.4C65.0947 79.968 64.3422 80.4954 63.5899 80.4954C62.7189 80.4954 62.0852 79.9678 62.0852 79.4V78.3856C57.3331 78.2232 53.452 75.7079 53.452 73.111C53.452 71.7312 54.6401 69.7025 56.145 69.7025C57.8082 69.7025 59.1547 72.0965 62.0852 72.624V66.051C58.4419 64.631 54.1648 62.8862 54.1648 57.6926C54.1648 52.5397 57.8873 50.0647 62.0852 49.4561V48.3202C62.0852 47.752 62.7189 47.2246 63.5899 47.2246C64.3424 47.2246 65.0947 47.7522 65.0947 48.3202V49.3344C67.5502 49.4156 72.1833 50.0649 72.1833 52.8644C72.1833 53.9599 71.4705 56.1916 69.7279 56.1916C68.4212 56.1916 67.6688 54.8932 65.0945 54.6904V60.6142C68.6982 61.994 72.896 63.9009 72.896 69.3784C72.8962 74.4095 69.7283 77.4524 65.0947 78.2232Z" fill="url(#paint7_linear_928_194)"/>
</g>
<defs>
<linearGradient id="paint0_linear_928_194" x1="45" y1="0" x2="45" y2="90" gradientUnits="userSpaceOnUse">
<stop stop-color="white"/>
</linearGradient>
<linearGradient id="paint1_linear_928_194" x1="22.8092" y1="75.9351" x2="22.8092" y2="91.0797" gradientUnits="userSpaceOnUse">
<stop stop-color="#F6D95D"/>
<stop offset="1" stop-color="#BD9E19"/>
</linearGradient>
<linearGradient id="paint2_linear_928_194" x1="21.2122" y1="50.9834" x2="21.2122" y2="66.1281" gradientUnits="userSpaceOnUse">
<stop stop-color="#F6D95D"/>
<stop offset="1" stop-color="#BD9E19"/>
</linearGradient>
<linearGradient id="paint3_linear_928_194" x1="27.0922" y1="26.0314" x2="27.0922" y2="41.176" gradientUnits="userSpaceOnUse">
<stop stop-color="#F6D95D"/>
<stop offset="1" stop-color="#BD9E19"/>
</linearGradient>
<linearGradient id="paint4_linear_928_194" x1="30.4452" y1="1.07983" x2="30.4452" y2="16.2245" gradientUnits="userSpaceOnUse">
<stop stop-color="#F6D95D"/>
<stop offset="1" stop-color="#BD9E19"/>
</linearGradient>
<linearGradient id="paint5_linear_928_194" x1="61.214" y1="54.8119" x2="61.214" y2="59.6403" gradientUnits="userSpaceOnUse">
<stop stop-color="#F6D95D"/>
<stop offset="1" stop-color="#BD9E19"/>
</linearGradient>
<linearGradient id="paint6_linear_928_194" x1="65.9066" y1="67.1464" x2="65.9066" y2="72.5833" gradientUnits="userSpaceOnUse">
<stop stop-color="#F6D95D"/>
<stop offset="1" stop-color="#BD9E19"/>
</linearGradient>
<linearGradient id="paint7_linear_928_194" x1="63.8208" y1="37.4341" x2="63.8208" y2="91.0798" gradientUnits="userSpaceOnUse">
<stop stop-color="#F6D95D"/>
<stop offset="1" stop-color="#BD9E19"/>
</linearGradient>
<clipPath id="clip0_928_194">
<rect width="90" height="90" fill="white"/>
</clipPath>
</defs>
</svg>
