<svg width="100" height="100" viewBox="0 0 100 100" fill="none" xmlns="http://www.w3.org/2000/svg">
<path d="M37.5229 46.9064L37.5375 82.8522L45.65 85.4272L53.7625 88.0022L53.7875 57.4084C53.8187 28.523 53.8229 26.7897 53.9041 26.3855C54.025 25.796 54.1312 25.4585 54.2916 25.0897C54.85 23.8501 55.8146 23.3355 56.9875 23.6626C58.7062 24.1355 59.6937 25.3855 60.0562 27.5439C60.2229 28.546 60.2375 29.5689 60.2375 41.7689V53.9043L60.7166 54.1314C61.7604 54.6147 63.1458 55.1043 64.2333 55.3605C71.0166 56.9584 76.0562 53.7168 77.7479 46.673C78.2208 44.698 78.4187 42.5709 78.3583 39.9751C78.277 36.3314 77.875 33.5397 77.0729 31.096C75.8083 27.2105 73.5208 24.223 69.9625 21.8043C66.9375 19.7501 63.4354 18.1876 57.7708 16.3689C50.6604 14.0855 43.7062 12.1855 38.8333 11.1939C38.2125 11.0689 37.6583 10.9668 37.6083 10.9668C37.5125 10.9668 37.5125 11.621 37.5229 46.9064ZM25.6708 57.4647C20.8875 59.1626 15.6625 61.023 14.0542 61.5918C9.82708 63.0938 9.4125 63.2438 8.41041 63.6522C5.54375 64.8168 3.08958 66.1376 1.77292 67.2251C1.29375 67.623 0.860419 68.1626 0.597919 68.6918C0.270836 69.3459 0.204169 69.6647 0.229169 70.4313C0.250003 70.9709 0.275002 71.1209 0.406252 71.4751C0.693752 72.2668 1.2875 73.0834 2.075 73.773C3.1625 74.7251 5.10417 75.7188 6.99792 76.3022C7.33125 76.4022 7.95625 76.6001 8.38333 76.7313C16.4958 79.2813 24.8375 79.8605 33.2271 78.4543L34.3604 78.2626L34.375 74.0188C34.3792 71.6459 34.3646 69.7751 34.3396 69.7751C34.3187 69.7751 33.4833 70.073 32.4896 70.4355C25.4854 72.9855 25.2437 73.0605 23.7771 73.323C20.7896 73.8626 17.6187 73.7063 16.0667 72.9501C15.15 72.5063 14.8875 72.0126 15.2354 71.4084C15.4917 70.9543 16.1479 70.4772 17 70.1188C17.2062 70.0334 21.1979 68.5959 25.8583 66.923C30.525 65.2543 34.3541 63.8793 34.3646 63.8647C34.375 63.8543 34.3792 61.7126 34.375 59.1084L34.3604 54.3709L25.6708 57.4647ZM72.7875 58.5168C68.0145 58.7793 62.5875 59.7876 58.0625 61.2438L56.8625 61.6314V66.5355C56.8625 69.6751 56.8771 71.4397 56.9125 71.4397C56.9583 71.4397 58.6771 70.8355 68.9062 67.2313C74.5604 65.2355 74.8083 65.1501 75.5333 64.9647C79.2229 63.998 83.8333 64.2293 85.1583 65.448C85.5416 65.8001 85.627 66.123 85.4354 66.5022C85.1979 66.9668 84.7041 67.3584 83.8687 67.7563C83.5812 67.8918 81.2479 68.7543 78.6833 69.6668C76.1187 70.5834 72.0062 72.0459 69.5375 72.9272C62.0541 75.5938 57.0458 77.3772 56.9541 77.4126C56.8687 77.448 56.8625 77.7209 56.8625 82.1855C56.8625 86.6751 56.8666 86.923 56.9541 86.8876C57.0541 86.848 70.9229 81.8688 87.5229 75.9063C90.3458 74.8876 92.975 73.9209 93.3687 73.7543C95.5249 72.8272 97.5062 71.598 98.5854 70.5293C99.5812 69.5376 99.9999 68.6605 99.9999 67.5834C99.9999 66.4334 99.5708 65.5584 98.5083 64.5397C97.602 63.6626 95.9833 62.7063 94.3062 62.0501C93.4395 61.7126 90.6124 60.7459 89.7208 60.4834C86.3895 59.5064 82.9979 58.9209 78.7354 58.5834C78.0791 58.5314 73.4625 58.4813 72.7875 58.5168Z" fill="url(#paint0_linear_923_42)"/>
<defs>
<linearGradient id="paint0_linear_923_42" x1="50.1125" y1="10.9668" x2="50.1125" y2="88.0022" gradientUnits="userSpaceOnUse">
<stop stop-color="white"/>
<stop offset="0.659" stop-color="white"/>
<stop offset="1" stop-color="white"/>
</linearGradient>
</defs>
</svg>
