<svg width="100" height="100" viewBox="0 0 100 100" fill="none" xmlns="http://www.w3.org/2000/svg">
<path d="M50 4C41.418 4 33.2371 6.40156 26.4531 10.6016C26.0151 10.7476 25.2583 11.3236 24.5703 11.9336C30.6603 7.0956 44.7435 16.7859 48.8555 19.6719C49.5475 20.1579 50.4564 20.1579 51.1484 19.6719C55.2604 16.7859 69.3436 7.0936 75.4336 11.9336C74.7456 11.3236 73.9868 10.7476 73.5508 10.6016C66.7648 6.40156 58.582 4 50 4ZM22 16C18.806 16 16.4727 18.6016 16.4727 18.6016C8.88866 26.8016 4.10156 37.8 4.10156 50C4.10156 75.4 24.656 96 50 96C63.37 96 75.5438 90.2 83.9258 81C83.9258 81 82.9282 74.9992 76.7422 66.1992C69.8242 55.7652 55.8102 42.6238 51.3242 38.5898C50.5582 37.9018 49.4163 37.9056 48.6563 38.6016C45.2763 41.6956 36.5548 50.3556 34.6328 52.6016C30.0428 57.4016 17.2707 72.5992 16.4727 81.1992C16.4727 81.1992 13.6773 74.4008 19.8633 58.8008C23.7133 49.4288 35.6707 35.496 41.4687 29.418C42.2387 28.612 42.2202 27.3382 41.4062 26.5742C39.4862 24.7762 35.0106 21.6252 30.9766 19.1992C28.1846 17.3992 24.994 16.2 22 16ZM77.3789 16C76.0729 16 67.5881 18.6857 58.6602 26.5977C57.8162 27.3457 57.7824 28.6509 58.5664 29.4609C61.8004 32.8029 70.6453 41.3628 75.9453 49.8008C82.5313 60.6008 86.521 69.2 84.125 81C91.509 72.8 96.1016 62 96.1016 50C95.9016 38 91.3106 27.0008 83.7266 18.8008C83.5266 18.6008 83.3269 18.3992 83.1289 18.1992C81.5329 16.3992 79.1749 16 77.3789 16Z" fill="white"/>
</svg>
