<svg width="100" height="100" viewBox="0 0 100 100" fill="none" xmlns="http://www.w3.org/2000/svg">
<g clip-path="url(#clip0_923_52)">
<path d="M93.3563 7.65674H6.64375C2.97246 7.65674 0 10.6323 0 14.3005V69.7632C0 73.4313 2.97246 76.4069 6.64375 76.4069H42.9688V77.887C42.9688 81.5552 39.9963 84.5308 36.325 84.5308H26.5625V92.3433H40.857H59.1432H73.4375V84.5308H63.675C60.0037 84.5308 57.0312 81.5554 57.0312 77.887V76.4069H93.3563C97.0275 76.4069 100 73.4315 100 69.7632V14.3005C100 10.6323 97.0275 7.65674 93.3563 7.65674ZM90.625 61.6911C90.625 62.9149 89.6332 63.9067 88.4094 63.9067H11.5906C10.3668 63.9067 9.375 62.9149 9.375 61.6911V19.2474C9.375 18.0235 10.3668 17.0317 11.5906 17.0317H88.4096C89.6334 17.0317 90.6252 18.0235 90.6252 19.2474V61.6911H90.625Z" fill="white" stroke="white" stroke-width="1.5625"/>
</g>
<defs>
<clipPath id="clip0_923_52">
<rect width="100" height="100" fill="white"/>
</clipPath>
</defs>
</svg>
