<svg width="70" height="70" viewBox="0 0 70 70" fill="none" xmlns="http://www.w3.org/2000/svg">
<path d="M22.4 4.19995C12.362 4.19995 4.19995 12.362 4.19995 22.4V47.6C4.19995 57.638 12.362 65.8 22.4 65.8H47.5999C57.638 65.8 65.7999 57.638 65.7999 47.6V22.4C65.7999 12.362 57.638 4.19995 47.5999 4.19995H22.4ZM51.7999 15.4C53.34 15.4 54.5999 16.66 54.5999 18.2C54.5999 19.74 53.34 21 51.7999 21C50.2599 21 49 19.74 49 18.2C49 16.66 50.2599 15.4 51.7999 15.4ZM35 19.6C43.498 19.6 50.4 26.502 50.4 35C50.4 43.498 43.498 50.4 35 50.4C26.502 50.4 19.6 43.498 19.6 35C19.6 26.502 26.502 19.6 35 19.6ZM35 22.4C28.056 22.4 22.4 28.056 22.4 35C22.4 41.944 28.056 47.6 35 47.6C41.944 47.6 47.5999 41.944 47.5999 35C47.5999 28.056 41.944 22.4 35 22.4Z" fill="url(#paint0_linear_1074_303)"/>
<defs>
<linearGradient id="paint0_linear_1074_303" x1="35" y1="4.19995" x2="35" y2="65.8" gradientUnits="userSpaceOnUse">
<stop stop-color="#664BC9"/>
<stop offset="1" stop-color="#C837AB"/>
</linearGradient>
</defs>
</svg>
