<svg width="70" height="70" viewBox="0 0 70 70" fill="none" xmlns="http://www.w3.org/2000/svg">
<path d="M35 2.7998C17.2452 2.7998 2.80001 17.245 2.80001 34.9998C2.80001 40.5438 4.23221 45.9954 6.94821 50.8058L2.85181 65.4218C2.71741 65.902 2.84761 66.4172 3.19481 66.7742C3.46221 67.05 3.82621 67.1998 4.20001 67.1998C4.31201 67.1998 4.42541 67.1858 4.53601 67.1592L19.7904 63.3806C24.4482 65.881 29.694 67.1998 35 67.1998C52.7548 67.1998 67.2 52.7546 67.2 34.9998C67.2 17.245 52.7548 2.7998 35 2.7998ZM51.198 46.3622C50.5092 48.269 47.2052 50.0092 45.6176 50.243C44.1924 50.4516 42.3892 50.5412 40.4096 49.9196C39.2098 49.5416 37.6698 49.0404 35.6972 48.199C27.405 44.6626 21.9898 36.418 21.5754 35.8734C21.1624 35.3288 18.2 31.448 18.2 27.4314C18.2 23.4148 20.335 21.4394 21.0938 20.6218C21.8526 19.8042 22.7472 19.5998 23.2988 19.5998C23.8504 19.5998 24.4006 19.6068 24.8836 19.6292C25.3918 19.6544 26.0736 19.4374 26.7442 21.0306C27.433 22.6658 29.0864 26.6824 29.2908 27.0926C29.498 27.5014 29.6352 27.9788 29.3608 28.5234C29.0864 29.068 28.9492 29.4082 28.5348 29.8856C28.1204 30.363 27.6668 30.9496 27.2944 31.3164C26.88 31.7238 26.4502 32.1648 26.9318 32.9824C27.4134 33.8 29.0724 36.4726 31.5308 38.637C34.6878 41.4174 37.352 42.2798 38.178 42.6886C39.004 43.0974 39.487 43.0288 39.9686 42.4842C40.4502 41.9382 42.035 40.1 42.5852 39.2838C43.1354 38.4676 43.687 38.602 44.4458 38.875C45.2046 39.1466 49.2688 41.1206 50.0948 41.5294C50.9208 41.9382 51.4724 42.1426 51.6796 42.4828C51.8868 42.8216 51.8868 44.4568 51.198 46.3622Z" fill="url(#paint0_linear_926_150)"/>
<defs>
<linearGradient id="paint0_linear_926_150" x1="34.9999" y1="2.7998" x2="34.9999" y2="67.1998" gradientUnits="userSpaceOnUse">
<stop stop-color="#696969"/>
<stop offset="1" stop-color="#121212"/>
</linearGradient>
</defs>
</svg>
