<svg width="66" height="66" viewBox="0 0 66 66" fill="none" xmlns="http://www.w3.org/2000/svg">
<path d="M33 0.799805C15.2452 0.799805 0.800012 15.245 0.800012 32.9998C0.800012 38.5438 2.23221 43.9954 4.94821 48.8058L0.851812 63.4218C0.717412 63.902 0.847613 64.4172 1.19481 64.7742C1.46221 65.05 1.82621 65.1998 2.20001 65.1998C2.31201 65.1998 2.42541 65.1858 2.53601 65.1592L17.7904 61.3806C22.4482 63.881 27.694 65.1998 33 65.1998C50.7548 65.1998 65.2 50.7546 65.2 32.9998C65.2 15.245 50.7548 0.799805 33 0.799805ZM49.198 44.3622C48.5092 46.269 45.2052 48.0092 43.6176 48.243C42.1924 48.4516 40.3892 48.5412 38.4096 47.9196C37.2098 47.5416 35.6698 47.0404 33.6972 46.199C25.405 42.6626 19.9898 34.418 19.5754 33.8734C19.1624 33.3288 16.2 29.448 16.2 25.4314C16.2 21.4148 18.335 19.4394 19.0938 18.6218C19.8526 17.8042 20.7472 17.5998 21.2988 17.5998C21.8504 17.5998 22.4006 17.6068 22.8836 17.6292C23.3918 17.6544 24.0736 17.4374 24.7442 19.0306C25.433 20.6658 27.0864 24.6824 27.2908 25.0926C27.498 25.5014 27.6352 25.9788 27.3608 26.5234C27.0864 27.068 26.9492 27.4082 26.5348 27.8856C26.1204 28.363 25.6668 28.9496 25.2944 29.3164C24.88 29.7238 24.4502 30.1648 24.9318 30.9824C25.4134 31.8 27.0724 34.4726 29.5308 36.637C32.6878 39.4174 35.352 40.2798 36.178 40.6886C37.004 41.0974 37.487 41.0288 37.9686 40.4842C38.4502 39.9382 40.035 38.1 40.5852 37.2838C41.1354 36.4676 41.687 36.602 42.4458 36.875C43.2046 37.1466 47.2688 39.1206 48.0948 39.5294C48.9208 39.9382 49.4724 40.1426 49.6796 40.4828C49.8868 40.8216 49.8868 42.4568 49.198 44.3622Z" fill="url(#paint0_linear_926_152)"/>
<defs>
<linearGradient id="paint0_linear_926_152" x1="32.9999" y1="0.799805" x2="32.9999" y2="65.1998" gradientUnits="userSpaceOnUse">
<stop stop-color="#696969"/>
<stop offset="1" stop-color="#121212"/>
</linearGradient>
</defs>
</svg>
