<svg width="70" height="70" viewBox="0 0 70 70" fill="none" xmlns="http://www.w3.org/2000/svg">
<path d="M35.2002 3C17.4454 3 3.00021 17.4452 3.00021 35.2C3.00021 40.744 4.43241 46.1956 7.14841 51.006L3.05201 65.622C2.91761 66.1022 3.04781 66.6174 3.39501 66.9744C3.66241 67.2502 4.02641 67.4 4.40021 67.4C4.51221 67.4 4.62561 67.386 4.73621 67.3594L19.9906 63.5808C24.6484 66.0812 29.8942 67.4 35.2002 67.4C52.955 67.4 67.4002 52.9548 67.4002 35.2C67.4002 17.4452 52.955 3 35.2002 3ZM51.3982 46.5624C50.7094 48.4692 47.4054 50.2094 45.8178 50.4432C44.3926 50.6518 42.5894 50.7414 40.6098 50.1198C39.41 49.7418 37.87 49.2406 35.8974 48.3992C27.6052 44.8628 22.19 36.6182 21.7756 36.0736C21.3626 35.529 18.4002 31.6482 18.4002 27.6316C18.4002 23.615 20.5352 21.6396 21.294 20.822C22.0528 20.0044 22.9474 19.8 23.499 19.8C24.0506 19.8 24.6008 19.807 25.0838 19.8294C25.592 19.8546 26.2738 19.6376 26.9444 21.2308C27.6332 22.866 29.2866 26.8826 29.491 27.2928C29.6982 27.7016 29.8354 28.179 29.561 28.7236C29.2866 29.2682 29.1494 29.6084 28.735 30.0858C28.3206 30.5632 27.867 31.1498 27.4946 31.5166C27.0802 31.924 26.6504 32.365 27.132 33.1826C27.6136 34.0002 29.2726 36.6728 31.731 38.8372C34.888 41.6176 37.5522 42.48 38.3782 42.8888C39.2042 43.2976 39.6872 43.229 40.1688 42.6844C40.6504 42.1384 42.2352 40.3002 42.7854 39.484C43.3356 38.6678 43.8872 38.8022 44.646 39.0752C45.4048 39.3468 49.469 41.3208 50.295 41.7296C51.121 42.1384 51.6726 42.3428 51.8798 42.683C52.087 43.0218 52.087 44.657 51.3982 46.5624Z" fill="url(#paint0_linear_1074_299)"/>
<defs>
<linearGradient id="paint0_linear_1074_299" x1="35.2001" y1="3" x2="35.2001" y2="67.4" gradientUnits="userSpaceOnUse">
<stop stop-color="#53CF5F"/>
<stop offset="1" stop-color="#27B43C"/>
</linearGradient>
</defs>
</svg>
