<svg width="62" height="62" viewBox="0 0 62 62" fill="none" xmlns="http://www.w3.org/2000/svg">
<path d="M18.4 0.200195C8.362 0.200195 0.199997 8.3622 0.199997 18.4002V43.6002C0.199997 53.6382 8.362 61.8002 18.4 61.8002H43.6C53.638 61.8002 61.8 53.6382 61.8 43.6002V18.4002C61.8 8.3622 53.638 0.200195 43.6 0.200195H18.4ZM47.8 11.4002C49.34 11.4002 50.6 12.6602 50.6 14.2002C50.6 15.7402 49.34 17.0002 47.8 17.0002C46.26 17.0002 45 15.7402 45 14.2002C45 12.6602 46.26 11.4002 47.8 11.4002ZM31 15.6002C39.498 15.6002 46.4 22.5022 46.4 31.0002C46.4 39.4982 39.498 46.4002 31 46.4002C22.502 46.4002 15.6 39.4982 15.6 31.0002C15.6 22.5022 22.502 15.6002 31 15.6002ZM31 18.4002C24.056 18.4002 18.4 24.0562 18.4 31.0002C18.4 37.9442 24.056 43.6002 31 43.6002C37.944 43.6002 43.6 37.9442 43.6 31.0002C43.6 24.0562 37.944 18.4002 31 18.4002Z" fill="url(#paint0_linear_926_159)"/>
<defs>
<linearGradient id="paint0_linear_926_159" x1="31" y1="0.200195" x2="31" y2="61.8002" gradientUnits="userSpaceOnUse">
<stop stop-color="#696969"/>
<stop offset="1" stop-color="#121212"/>
</linearGradient>
</defs>
</svg>
