<svg width="67" height="67" viewBox="0 0 67 67" fill="none" xmlns="http://www.w3.org/2000/svg">
<ellipse cx="33.4866" cy="33.1712" rx="33.4675" ry="33.1712" fill="white"/>
<path d="M33.488 13.1396C22.3443 13.1396 13.2778 22.1258 13.2778 33.1709C13.2778 36.6198 14.1768 40.0112 15.8814 43.0036L13.3104 52.0961C13.226 52.3948 13.3077 52.7153 13.5256 52.9374C13.6935 53.109 13.9219 53.2022 14.1565 53.2022C14.2268 53.2022 14.298 53.1935 14.3674 53.1769L23.9418 50.8263C26.8652 52.3818 30.1577 53.2022 33.488 53.2022C44.6317 53.2022 53.6981 44.216 53.6981 33.1709C53.6981 22.1258 44.6317 13.1396 33.488 13.1396ZM43.6546 40.2393C43.2222 41.4255 41.1485 42.5081 40.1521 42.6535C39.2575 42.7833 38.1258 42.839 36.8833 42.4524C36.1302 42.2172 35.1637 41.9054 33.9256 41.382C28.721 39.182 25.3222 34.0532 25.0621 33.7144C24.8029 33.3756 22.9436 30.9614 22.9436 28.4627C22.9436 25.964 24.2836 24.7351 24.7598 24.2265C25.2361 23.7179 25.7976 23.5907 26.1438 23.5907C26.49 23.5907 26.8353 23.5951 27.1385 23.609C27.4575 23.6247 27.8854 23.4897 28.3063 24.4808C28.7386 25.4981 29.7763 27.9967 29.9046 28.2519C30.0347 28.5062 30.1208 28.8032 29.9486 29.142C29.7763 29.4808 29.6902 29.6924 29.4301 29.9894C29.17 30.2864 28.8853 30.6513 28.6516 30.8795C28.3915 31.1329 28.1218 31.4073 28.424 31.9159C28.7263 32.4245 29.7676 34.0871 31.3106 35.4336C33.292 37.1632 34.9642 37.6997 35.4826 37.954C36.0011 38.2083 36.3042 38.1657 36.6065 37.8269C36.9088 37.4872 37.9035 36.3437 38.2488 35.8359C38.5941 35.3282 38.9403 35.4118 39.4166 35.5816C39.8928 35.7506 42.4437 36.9786 42.9621 37.2329C43.4806 37.4872 43.8268 37.6144 43.9568 37.826C44.0869 38.0368 44.0869 39.054 43.6546 40.2393Z" fill="url(#paint0_linear_926_200)"/>
<defs>
<linearGradient id="paint0_linear_926_200" x1="33.4879" y1="13.1396" x2="33.4879" y2="53.2022" gradientUnits="userSpaceOnUse">
<stop stop-color="#696969"/>
<stop offset="1" stop-color="#121212"/>
</linearGradient>
</defs>
</svg>
