<svg width="67" height="67" viewBox="0 0 67 67" fill="none" xmlns="http://www.w3.org/2000/svg">
<ellipse cx="33.4769" cy="33.1712" rx="33.4675" ry="33.1712" fill="white"/>
<path d="M47.1857 15.3379H19.7694C17.4047 15.3379 15.4856 17.24 15.4856 19.5838V46.7573C15.4856 49.1011 17.4047 51.0032 19.7694 51.0032H47.1857C49.5504 51.0032 51.4695 49.1011 51.4695 46.7573V19.5838C51.4695 17.24 49.5504 15.3379 47.1857 15.3379ZM43.7587 28.0755H42.0452C40.2117 28.0755 39.4749 28.5001 39.4749 29.7739V32.3214H43.7587L42.9019 36.5672H39.4749V49.3049H35.1911V36.5672H31.764V32.3214H35.1911V29.7739C35.1911 26.3772 36.9046 23.8296 40.3316 23.8296C42.8162 23.8296 43.7587 24.6788 43.7587 24.6788V28.0755Z" fill="url(#paint0_linear_926_195)"/>
<defs>
<linearGradient id="paint0_linear_926_195" x1="33.4776" y1="15.3379" x2="33.4776" y2="51.0032" gradientUnits="userSpaceOnUse">
<stop stop-color="#696969"/>
<stop offset="1" stop-color="#121212"/>
</linearGradient>
</defs>
</svg>
