<svg width="67" height="67" viewBox="0 0 67 67" fill="none" xmlns="http://www.w3.org/2000/svg">
<ellipse cx="33.4675" cy="33.1712" rx="33.4675" ry="33.1712" fill="white"/>
<path d="M25.8528 14.7212C19.7861 14.7212 14.8531 19.6104 14.8531 25.6234V40.7189C14.8531 46.7319 19.7861 51.6211 25.8528 51.6211H41.0831C47.1498 51.6211 52.0827 46.7319 52.0827 40.7189V25.6234C52.0827 19.6104 47.1498 14.7212 41.0831 14.7212H25.8528ZM43.6215 21.4303C44.5522 21.4303 45.3137 22.185 45.3137 23.1075C45.3137 24.03 44.5522 24.7848 43.6215 24.7848C42.6907 24.7848 41.9292 24.03 41.9292 23.1075C41.9292 22.185 42.6907 21.4303 43.6215 21.4303ZM33.4679 23.9462C38.6039 23.9462 42.7753 28.0806 42.7753 33.1712C42.7753 38.2617 38.6039 42.3961 33.4679 42.3961C28.3319 42.3961 24.1605 38.2617 24.1605 33.1712C24.1605 28.0806 28.3319 23.9462 33.4679 23.9462ZM33.4679 25.6234C29.2711 25.6234 25.8528 29.0115 25.8528 33.1712C25.8528 37.3308 29.2711 40.7189 33.4679 40.7189C37.6647 40.7189 41.0831 37.3308 41.0831 33.1712C41.0831 29.0115 37.6647 25.6234 33.4679 25.6234Z" fill="url(#paint0_linear_926_190)"/>
<defs>
<linearGradient id="paint0_linear_926_190" x1="33.4679" y1="14.7212" x2="33.4679" y2="51.6211" gradientUnits="userSpaceOnUse">
<stop stop-color="#696969"/>
<stop offset="1" stop-color="#121212"/>
</linearGradient>
</defs>
</svg>
