<svg width="67" height="67" viewBox="0 0 67 67" fill="none" xmlns="http://www.w3.org/2000/svg">
<ellipse cx="33.4769" cy="33.1712" rx="33.4675" ry="33.1712" fill="white"/>
<path d="M47.4762 15H18.5238C16.0294 15 14 17.0294 14 19.5238V48.4762C14 50.9706 16.0294 53 18.5238 53H47.4762C49.9706 53 52 50.9706 52 48.4762V19.5238C52 17.0294 49.9706 15 47.4762 15ZM43.8626 31.578C43.6572 31.597 43.4491 31.6096 43.2383 31.6096C40.8651 31.6096 38.7796 30.3891 37.5663 28.5443C37.5663 33.3839 37.5663 38.8902 37.5663 38.9825C37.5663 43.243 34.112 46.6974 29.8514 46.6974C25.5909 46.6974 22.1365 43.243 22.1365 38.9825C22.1365 34.722 25.5909 31.2676 29.8514 31.2676C30.0125 31.2676 30.1699 31.2821 30.3282 31.292V35.0939C30.1699 35.0749 30.0143 35.0459 29.8514 35.0459C27.6764 35.0459 25.9139 36.8084 25.9139 38.9834C25.9139 41.1585 27.6764 42.921 29.8514 42.921C32.0265 42.921 33.9473 41.2073 33.9473 39.0323C33.9473 38.9463 33.9853 21.3044 33.9853 21.3044H37.6188C37.9608 24.5534 40.5837 27.1175 43.8626 27.3527V31.578Z" fill="url(#paint0_linear_1357_23)"/>
<defs>
<linearGradient id="paint0_linear_1357_23" x1="33" y1="15" x2="33" y2="53" gradientUnits="userSpaceOnUse">
<stop stop-color="#696969"/>
<stop offset="1" stop-color="#121212"/>
</linearGradient>
</defs>
</svg>
