<svg width="45" height="45" viewBox="0 0 45 45" fill="none" xmlns="http://www.w3.org/2000/svg">
<path d="M39.6429 0H5.35714C2.4 0 0 2.4 0 5.35714V39.6429C0 42.6 2.4 45 5.35714 45H39.6429C42.6 45 45 42.6 45 39.6429V5.35714C45 2.4 42.6 0 39.6429 0ZM35.3571 16.0714H33.2143C30.9214 16.0714 30 16.6071 30 18.2143V21.4286H35.3571L34.2857 26.7857H30V42.8571H24.6429V26.7857H20.3571V21.4286H24.6429V18.2143C24.6429 13.9286 26.7857 10.7143 31.0714 10.7143C34.1786 10.7143 35.3571 11.7857 35.3571 11.7857V16.0714Z" fill="url(#paint0_linear_941_105)"/>
<defs>
<linearGradient id="paint0_linear_941_105" x1="22.5" y1="0" x2="22.5" y2="45" gradientUnits="userSpaceOnUse">
<stop stop-color="white"/>
</linearGradient>
</defs>
</svg>
