<svg width="45" height="45" viewBox="0 0 45 45" fill="none" xmlns="http://www.w3.org/2000/svg">
<path d="M13.2955 0C5.9625 0 0 5.9625 0 13.2955V31.7045C0 39.0375 5.9625 45 13.2955 45H31.7045C39.0375 45 45 39.0375 45 31.7045V13.2955C45 5.9625 39.0375 0 31.7045 0H13.2955ZM34.7727 8.18182C35.8977 8.18182 36.8182 9.10227 36.8182 10.2273C36.8182 11.3523 35.8977 12.2727 34.7727 12.2727C33.6477 12.2727 32.7273 11.3523 32.7273 10.2273C32.7273 9.10227 33.6477 8.18182 34.7727 8.18182ZM22.5 11.25C28.708 11.25 33.75 16.292 33.75 22.5C33.75 28.708 28.708 33.75 22.5 33.75C16.292 33.75 11.25 28.708 11.25 22.5C11.25 16.292 16.292 11.25 22.5 11.25ZM22.5 13.2955C17.4273 13.2955 13.2955 17.4273 13.2955 22.5C13.2955 27.5727 17.4273 31.7045 22.5 31.7045C27.5727 31.7045 31.7045 27.5727 31.7045 22.5C31.7045 17.4273 27.5727 13.2955 22.5 13.2955Z" fill="white"/>
</svg>
