<svg width="45" height="45" viewBox="0 0 45 45" fill="none" xmlns="http://www.w3.org/2000/svg">
<path d="M22.5001 0C10.0938 0 0.000145196 10.0937 0.000145196 22.5C0.000145196 26.3739 1.0009 30.1833 2.89872 33.5446L0.0363407 43.7576C-0.0575721 44.0932 0.033406 44.4532 0.276014 44.7026C0.462861 44.8953 0.717208 45 0.978403 45C1.05666 45 1.1359 44.9902 1.21318 44.9716L11.8723 42.3313C15.1269 44.0785 18.7925 45 22.5001 45C34.9063 45 45 34.9063 45 22.5C45 10.0937 34.9063 0 22.5001 0ZM33.8185 30.4396C33.3372 31.772 31.0285 32.9879 29.9192 33.1513C28.9233 33.2971 27.6633 33.3597 26.2801 32.9253C25.4417 32.6612 24.3656 32.311 22.9872 31.723C17.193 29.252 13.4091 23.491 13.1196 23.1104C12.831 22.7299 10.761 20.0182 10.761 17.2115C10.761 14.4049 12.2528 13.0246 12.783 12.4533C13.3133 11.882 13.9384 11.7391 14.3238 11.7391C14.7092 11.7391 15.0937 11.744 15.4312 11.7597C15.7863 11.7773 16.2627 11.6257 16.7313 12.7389C17.2126 13.8815 18.3679 16.6882 18.5107 16.9748C18.6555 17.2604 18.7514 17.594 18.5597 17.9746C18.3679 18.3551 18.272 18.5928 17.9825 18.9264C17.6929 19.26 17.376 19.6699 17.1157 19.9262C16.8262 20.2109 16.5259 20.519 16.8624 21.0903C17.1989 21.6616 18.3581 23.5291 20.076 25.0415C22.2819 26.9843 24.1435 27.587 24.7207 27.8726C25.2979 28.1583 25.6354 28.1103 25.9719 27.7298C26.3084 27.3483 27.4158 26.0638 27.8003 25.4935C28.1847 24.9232 28.5702 25.0171 29.1004 25.2078C29.6306 25.3976 32.4705 26.777 33.0476 27.0626C33.6248 27.3483 34.0103 27.4911 34.155 27.7288C34.2998 27.9655 34.2998 29.1082 33.8185 30.4396Z" fill="white"/>
</svg>
