<svg width="45" height="45" viewBox="0 0 45 45" fill="none" xmlns="http://www.w3.org/2000/svg">
<path d="M39.6429 0H5.35714C2.40321 0 0 2.40321 0 5.35714V39.6429C0 42.5968 2.40321 45 5.35714 45H39.6429C42.5968 45 45 42.5968 45 39.6429V5.35714C45 2.40321 42.5968 0 39.6429 0ZM35.3636 19.6318C35.1204 19.6543 34.8739 19.6693 34.6243 19.6693C31.8139 19.6693 29.3443 18.2239 27.9075 16.0393C27.9075 21.7704 27.9075 28.2911 27.9075 28.4004C27.9075 33.4457 23.8168 37.5364 18.7714 37.5364C13.7261 37.5364 9.63536 33.4457 9.63536 28.4004C9.63536 23.355 13.7261 19.2643 18.7714 19.2643C18.9621 19.2643 19.1486 19.2814 19.3361 19.2932V23.7954C19.1486 23.7729 18.9643 23.7386 18.7714 23.7386C16.1957 23.7386 14.1086 25.8257 14.1086 28.4014C14.1086 30.9771 16.1957 33.0643 18.7714 33.0643C21.3471 33.0643 23.6218 31.035 23.6218 28.4593C23.6218 28.3575 23.6668 7.46571 23.6668 7.46571H27.9696C28.3746 11.3132 31.4807 14.3496 35.3636 14.6282V19.6318Z" fill="white"/>
</svg>
