<svg width="33" height="33" viewBox="0 0 33 33" fill="none" xmlns="http://www.w3.org/2000/svg">
<path d="M16.4995 0.399902C7.62212 0.399902 0.399518 7.6225 0.399518 16.4999C0.399518 19.2719 1.11562 21.9977 2.47362 24.4029L0.425418 31.7109C0.358218 31.951 0.423318 32.2086 0.596918 32.3871C0.730618 32.525 0.912618 32.5999 1.09952 32.5999C1.15552 32.5999 1.21222 32.5929 1.26752 32.5796L8.89472 30.6903C11.2236 31.9405 13.8465 32.5999 16.4995 32.5999C25.3769 32.5999 32.5995 25.3773 32.5995 16.4999C32.5995 7.6225 25.3769 0.399902 16.4995 0.399902ZM24.5985 22.1811C24.2541 23.1345 22.6021 24.0046 21.8083 24.1215C21.0957 24.2258 20.1941 24.2706 19.2043 23.9598C18.6044 23.7708 17.8344 23.5202 16.8481 23.0995C12.702 21.3313 9.99442 17.209 9.78722 16.9367C9.58072 16.6644 8.09952 14.724 8.09952 12.7157C8.09952 10.7074 9.16702 9.7197 9.54642 9.3109C9.92582 8.9021 10.3731 8.7999 10.6489 8.7999C10.9247 8.7999 11.1998 8.8034 11.4413 8.8146C11.6954 8.8272 12.0363 8.7187 12.3716 9.5153C12.716 10.3329 13.5427 12.3412 13.6449 12.5463C13.7485 12.7507 13.8171 12.9894 13.6799 13.2617C13.5427 13.534 13.4741 13.7041 13.2669 13.9428C13.0597 14.1815 12.8329 14.4748 12.6467 14.6582C12.4395 14.8619 12.2246 15.0824 12.4654 15.4912C12.7062 15.9 13.5357 17.2363 14.7649 18.3185C16.3434 19.7087 17.6755 20.1399 18.0885 20.3443C18.5015 20.5487 18.743 20.5144 18.9838 20.2421C19.2246 19.9691 20.017 19.05 20.2921 18.6419C20.5672 18.2338 20.843 18.301 21.2224 18.4375C21.6018 18.5733 23.6339 19.5603 24.0469 19.7647C24.4599 19.9691 24.7357 20.0713 24.8393 20.2414C24.9429 20.4108 24.9429 21.2284 24.5985 22.1811Z" fill="url(#paint0_linear_1094_688)"/>
<defs>
<linearGradient id="paint0_linear_1094_688" x1="16.4995" y1="0.399902" x2="16.4995" y2="32.5999" gradientUnits="userSpaceOnUse">
<stop stop-color="white"/>
</linearGradient>
</defs>
</svg>
